<svg width="45" height="45" viewBox="0 0 45 45" fill="none" xmlns="http://www.w3.org/2000/svg">
<g id="Bold / Messages, Conversation / Chat Square Like">
<path id="Vector" fill-rule="evenodd" clip-rule="evenodd" d="M24.5375 40.1019L25.5539 38.3847C26.3423 37.0527 26.7365 36.3867 27.3697 36.0185C28.0029 35.6502 28.8001 35.6364 30.3945 35.609C32.7483 35.5684 34.2246 35.4242 35.4627 34.9114C37.7598 33.9599 39.5849 32.1348 40.5364 29.8377C41.25 28.1148 41.25 25.9307 41.25 21.5625V19.6875C41.25 13.5498 41.25 10.481 39.8685 8.22658C39.0955 6.96512 38.0349 5.90452 36.7734 5.1315C34.519 3.75 31.4502 3.75 25.3125 3.75H19.6875C13.5498 3.75 10.481 3.75 8.22658 5.1315C6.96512 5.90452 5.90452 6.96512 5.1315 8.22658C3.75 10.481 3.75 13.5498 3.75 19.6875V21.5625C3.75 25.9307 3.75 28.1148 4.46363 29.8377C5.41514 32.1348 7.2402 33.9599 9.53734 34.9114C10.7754 35.4242 12.2517 35.5684 14.6055 35.609C16.1999 35.6364 16.9971 35.6502 17.6302 36.0185C18.2634 36.3867 18.6576 37.0527 19.446 38.3847L20.4624 40.1019C21.3684 41.6325 23.6315 41.6325 24.5375 40.1019ZM14.0625 18.2152C14.0625 21.5013 18.1187 24.9945 20.6064 26.8279C21.4579 27.4555 21.8837 27.7693 22.5 27.7693C23.1163 27.7693 23.5421 27.4555 24.3937 26.8279C26.8813 24.9945 30.9375 21.5013 30.9375 18.2151C30.9375 13.1955 26.2967 11.3214 22.5 15.199C18.7033 11.3214 14.0625 13.1955 14.0625 18.2152Z" fill="#6877EB"/>
</g>
</svg>
