<svg width="45" height="45" viewBox="0 0 45 45" fill="none" xmlns="http://www.w3.org/2000/svg">
<g id="Bold / Messages, Conversation / Plain 3">
<path id="Vector" fill-rule="evenodd" clip-rule="evenodd" d="M38.1602 19.7266L34.9419 29.3816C32.6728 36.189 31.5382 39.5927 29.8744 40.56C28.2916 41.4801 26.3368 41.4801 24.7541 40.56C23.0903 39.5927 21.9557 36.189 19.6866 29.3816C19.3222 28.2886 19.1401 27.742 18.8342 27.2852C18.5379 26.8425 18.1576 26.4622 17.7149 26.1658C17.2581 25.86 16.7115 25.6778 15.6185 25.3135C8.81106 23.0443 5.40735 21.9098 4.44011 20.246C3.51996 18.6632 3.51996 16.7084 4.44011 15.1257C5.40735 13.4619 8.81107 12.3273 15.6185 10.0582L25.2735 6.83983C33.708 4.02834 37.9252 2.6226 40.1513 4.84872C42.3775 7.07485 40.9717 11.2921 38.1602 19.7266ZM24.4607 20.4416C23.9145 19.8894 23.9195 18.9991 24.4717 18.4529L32.3664 10.6452C32.9186 10.0991 33.809 10.104 34.3551 10.6562C34.9012 11.2085 34.8963 12.0988 34.3441 12.6449L26.4494 20.4527C25.8972 20.9988 25.0068 20.9939 24.4607 20.4416Z" fill="#6877EB"/>
</g>
</svg>
