<svg width="45" height="45" viewBox="0 0 45 45" fill="none" xmlns="http://www.w3.org/2000/svg">
<g id="Bold / Shopping, Ecommerce / Cart Check">
<g id="Vector">
<path fill-rule="evenodd" clip-rule="evenodd" d="M5.70069 4.29825C4.96801 4.04065 4.16522 4.42579 3.90762 5.15847C3.65003 5.89116 4.03516 6.69394 4.76785 6.95154L5.25762 7.12373C6.50938 7.56383 7.33205 7.85548 7.93738 8.1525C8.50592 8.43147 8.75656 8.65728 8.92167 8.8989C9.09091 9.14655 9.2216 9.48672 9.29534 10.168C9.37251 10.8809 9.37442 11.8094 9.37442 13.1968L9.37442 18.075C9.37442 23.5904 9.49299 25.4106 11.1175 27.124C12.742 28.8375 15.3566 28.8375 20.5858 28.8375H30.5287C33.4556 28.8375 34.9191 28.8375 35.9535 27.9945C36.988 27.1515 37.2834 25.7181 37.8743 22.8515L38.8113 18.3051C39.4622 15.0444 39.7876 13.414 38.9552 12.332C38.1228 11.25 35.2789 11.25 32.1196 11.25H12.1729C12.1604 10.7431 12.1366 10.282 12.0915 9.86534C11.9908 8.93462 11.7725 8.08578 11.2438 7.31208C10.7109 6.53233 10.0025 6.03295 9.17628 5.62757C8.40362 5.24845 7.42181 4.90331 6.26581 4.49693L5.70069 4.29825ZM29.0946 15.8567C29.657 16.3923 29.6788 17.2824 29.1431 17.8448L23.786 23.4698C23.5206 23.7485 23.1525 23.9062 22.7677 23.9062C22.3828 23.9062 22.0148 23.7485 21.7494 23.4698L19.6065 21.2198C19.0709 20.6574 19.0926 19.7673 19.655 19.2317C20.2174 18.696 21.1075 18.7177 21.6431 19.2801L22.7677 20.4609L27.1065 15.9051C27.6421 15.3427 28.5322 15.321 29.0946 15.8567Z" fill="#6877EB"/>
<path d="M14.0623 33.75C15.6156 33.75 16.8748 35.0092 16.8748 36.5625C16.8748 38.1158 15.6156 39.375 14.0623 39.375C12.509 39.375 11.2498 38.1158 11.2498 36.5625C11.2498 35.0092 12.509 33.75 14.0623 33.75Z" fill="#6877EB"/>
<path d="M30.9373 33.7501C32.4906 33.7501 33.7498 35.0093 33.7498 36.5626C33.7498 38.1159 32.4906 39.3751 30.9373 39.3751C29.384 39.3751 28.1248 38.1159 28.1248 36.5626C28.1248 35.0093 29.384 33.7501 30.9373 33.7501Z" fill="#6877EB"/>
</g>
</g>
</svg>
